<?xml version="1.0" standalone="no"?>
<!DOCTYPE svg PUBLIC "-//W3C//DTD SVG 20010904//EN"
 "http://www.w3.org/TR/2001/REC-SVG-20010904/DTD/svg10.dtd">
<svg version="1.0" xmlns="http://www.w3.org/2000/svg"
 width="3508.000000pt" height="2481.000000pt" viewBox="0 0 3508.000000 2481.000000"
 preserveAspectRatio="xMidYMid meet">

<g transform="translate(0.000000,2481.000000) scale(0.100000,-0.100000)"
fill="#000000" stroke="none">
<path d="M17035 21959 c-1124 -60 -2222 -315 -3255 -756 -1699 -726 -3168
-1947 -4199 -3493 -953 -1428 -1492 -3050 -1591 -4784 -13 -227 -13 -819 0
-1041 127 -2184 949 -4181 2398 -5825 267 -303 702 -725 1030 -998 1316 -1096
2888 -1815 4572 -2091 584 -95 1024 -126 1687 -118 435 5 608 15 938 52 1860
211 3625 966 5053 2163 318 266 730 663 983 947 1227 1375 2017 3012 2319
4804 133 790 165 1631 94 2441 -138 1581 -678 3118 -1558 4439 -706 1059
-1605 1959 -2661 2666 -1329 889 -2864 1428 -4465 1569 -395 35 -960 46 -1345
25z m910 -329 c1321 -64 2528 -374 3690 -950 735 -364 1388 -804 2020 -1359
161 -141 557 -533 715 -706 1299 -1427 2119 -3230 2339 -5145 69 -600 78
-1278 25 -1875 -153 -1719 -775 -3344 -1804 -4713 -1584 -2108 -3948 -3431
-6555 -3666 -586 -53 -1281 -46 -1870 20 -2691 299 -5120 1778 -6640 4044
-727 1083 -1218 2325 -1434 3625 -122 732 -153 1572 -85 2330 218 2454 1413
4717 3324 6296 1061 877 2316 1509 3650 1839 842 208 1778 301 2625 260z"/>
<path d="M17075 21100 c-217 -29 -389 -186 -441 -406 -21 -88 -20 -257 1 -339
26 -100 83 -204 144 -265 100 -99 216 -144 371 -142 265 2 462 151 525 397 20
78 20 271 0 350 -55 216 -205 365 -405 401 -83 15 -107 15 -195 4z m159 -214
c195 -81 258 -459 109 -654 -55 -73 -189 -104 -278 -63 -54 24 -120 100 -145
169 -83 221 -19 481 134 548 41 17 138 18 180 0z"/>
<path d="M18644 20482 c-83 -295 -150 -538 -150 -539 5 -6 227 -49 230 -44 2
3 43 157 91 341 48 184 98 373 110 420 l24 85 0 -140 c1 -136 28 -689 36 -731
4 -17 20 -24 100 -41 53 -11 97 -17 99 -14 99 176 339 604 380 681 32 58 55
96 52 85 -25 -98 -154 -839 -147 -847 8 -9 228 -54 234 -48 6 6 179 1102 175
1105 -5 4 -303 65 -315 65 -15 0 -164 -259 -289 -503 l-101 -199 -7 204 c-4
111 -13 282 -21 378 -8 96 -15 184 -15 196 0 18 -15 24 -153 52 -84 18 -159
32 -167 32 -11 0 -53 -136 -166 -538z"/>
<path d="M15540 20872 c-69 -20 -130 -40 -137 -45 -12 -8 -183 -514 -183 -543
0 -46 -23 18 -81 226 -34 124 -63 226 -64 227 -1 2 -55 -12 -121 -31 -102 -28
-119 -36 -116 -52 4 -21 294 -1057 297 -1062 2 -2 56 12 121 31 102 30 119 37
116 53 -2 11 -24 90 -48 176 l-44 158 27 65 c16 36 31 64 35 62 4 -1 95 -87
202 -190 l196 -188 137 39 c76 21 137 42 136 46 -1 4 -123 120 -270 257 -147
138 -267 256 -265 263 1 7 49 129 107 271 58 142 105 262 105 266 0 13 -15 11
-150 -29z"/>
<path d="M20830 20093 c-84 -164 -165 -338 -182 -388 -27 -80 -30 -99 -26
-185 6 -146 54 -225 187 -312 232 -151 460 -126 621 68 35 43 370 676 370 701
0 10 -217 119 -224 112 -3 -3 -78 -149 -168 -324 -166 -328 -205 -387 -272
-419 -100 -47 -243 18 -262 120 -17 94 -4 132 170 481 l166 333 -110 55 c-60
30 -112 55 -114 55 -2 0 -73 -134 -156 -297z"/>
<path d="M12707 19613 c-54 -40 -86 -71 -83 -79 9 -24 302 -408 390 -513 l87
-102 -53 31 c-132 77 -719 350 -752 350 -11 0 -236 -168 -236 -176 0 -9 664
-894 671 -894 10 0 179 130 179 138 0 8 -323 439 -414 553 -33 41 -64 80 -70
88 -6 7 55 -21 134 -62 118 -61 664 -314 693 -320 10 -2 216 146 217 155 0 9
-659 892 -669 895 -3 1 -46 -27 -94 -64z"/>
<path d="M17187 19419 c-2221 -110 -4254 -1266 -5494 -3124 -960 -1440 -1349
-3180 -1098 -4915 184 -1267 727 -2478 1559 -3474 299 -359 648 -699 1016
-992 900 -716 1965 -1201 3090 -1408 480 -88 917 -123 1420 -112 303 6 396 12
665 41 1194 132 2363 591 3355 1319 537 394 1049 902 1453 1441 851 1136 1320
2437 1397 3870 70 1312 -255 2678 -908 3816 -327 568 -683 1033 -1151 1499
-530 528 -1109 950 -1766 1285 -1089 554 -2311 815 -3538 754z m838 -339 c777
-61 1497 -238 2190 -540 173 -75 527 -255 690 -351 1657 -969 2825 -2605 3194
-4474 318 -1611 40 -3274 -784 -4680 -470 -804 -1135 -1531 -1895 -2074 -757
-540 -1631 -921 -2535 -1105 -1749 -355 -3542 -10 -5025 968 -865 571 -1611
1363 -2120 2251 -426 744 -700 1538 -820 2374 -41 287 -59 512 -67 821 -27
1166 258 2331 821 3353 895 1625 2423 2812 4210 3267 447 114 879 177 1401
204 116 6 601 -3 740 -14z"/>
<path d="M17330 18744 c-652 -47 -753 -58 -1058 -119 -1539 -309 -2817 -1114
-3805 -2398 -115 -149 -131 -185 -105 -241 9 -17 229 -400 490 -851 261 -451
670 -1159 909 -1573 239 -414 443 -764 454 -777 l20 -25 1710 2961 c940 1629
1720 2979 1733 3000 l23 39 -93 -1 c-51 -1 -176 -8 -278 -15z"/>
<path d="M20837 12058 c-8 -12 -785 -1356 -1726 -2986 -1015 -1757 -1711
-2973 -1711 -2987 0 -31 -32 -31 392 0 487 36 685 60 993 121 1526 302 2790
1085 3780 2339 149 189 155 199 155 259 0 48 -10 69 -186 371 -103 176 -398
687 -657 1135 -472 818 -1018 1762 -1023 1768 -1 2 -9 -7 -17 -20z"/>
<path d="M22372 18934 c-194 -229 -355 -421 -358 -429 -3 -8 30 -42 81 -86 84
-70 87 -72 104 -53 41 44 305 359 404 481 59 73 107 131 107 129 0 -2 -16 -62
-35 -132 -28 -102 -165 -743 -165 -773 0 -7 185 -164 199 -169 8 -3 736 847
730 853 -30 27 -174 145 -178 144 -11 -1 -325 -379 -409 -492 -46 -62 -85
-113 -87 -115 -1 -2 13 48 32 110 28 95 168 758 160 763 -1 1 -50 43 -110 93
-59 51 -111 92 -115 92 -4 0 -166 -188 -360 -416z"/>
<path d="M11192 18268 l-82 -93 27 -26 c16 -15 203 -185 417 -378 l390 -351
65 72 c113 123 109 115 75 148 -74 72 -797 720 -803 720 -4 0 -44 -42 -89 -92z"/>
<path d="M23735 17609 c-237 -187 -434 -344 -438 -349 -12 -11 142 -203 157
-197 7 3 207 159 444 347 l430 342 -76 99 c-43 54 -79 98 -82 98 -3 1 -199
-152 -435 -340z"/>
<path d="M10276 17068 c-8 -13 -46 -76 -85 -141 l-71 -119 117 -131 c516 -577
657 -732 664 -735 4 -2 37 47 74 108 l67 112 -58 61 c-33 34 -79 83 -103 109
l-43 46 81 136 c45 75 85 136 89 136 4 0 66 -16 137 -35 72 -19 135 -35 140
-35 15 0 148 221 138 230 -8 8 -1100 280 -1121 280 -7 0 -18 -10 -26 -22z
m319 -288 c105 -28 197 -54 206 -58 13 -6 6 -24 -46 -109 l-61 -102 -161 165
c-88 91 -153 163 -144 161 9 -3 102 -28 206 -57z"/>
<path d="M24440 16605 c-267 -140 -489 -256 -493 -258 -6 -2 88 -197 109 -225
1 -2 76 35 165 82 l164 85 69 -15 c39 -8 71 -16 72 -17 2 -1 -65 -107 -147
-235 l-150 -232 69 -131 c69 -129 70 -131 85 -108 8 13 95 157 192 319 98 162
179 297 181 299 2 2 135 -19 295 -48 160 -29 293 -50 295 -48 6 5 -124 253
-139 264 -6 6 -127 22 -267 37 -140 15 -271 30 -290 33 l-35 5 40 20 c130 67
381 200 388 207 9 9 -99 221 -111 221 -4 0 -225 -115 -492 -255z"/>
<path d="M9539 15528 c-50 -70 -78 -121 -106 -199 -24 -65 -28 -88 -28 -194 0
-108 3 -125 25 -170 29 -59 84 -116 142 -147 36 -19 58 -23 133 -23 130 0 177
29 318 190 93 107 130 135 180 135 31 0 46 -7 74 -35 35 -35 36 -37 31 -100
-7 -79 -46 -165 -116 -256 l-51 -66 90 -57 c104 -65 98 -66 161 27 87 129 131
263 131 402 0 155 -57 256 -176 314 -82 40 -158 49 -229 26 -74 -23 -136 -72
-234 -183 -45 -52 -97 -104 -115 -118 -82 -60 -167 -3 -157 106 6 58 57 169
104 226 l35 43 -91 61 -90 60 -31 -42z"/>
<path d="M24620 14883 c1 -13 58 -234 62 -238 1 -2 70 -7 152 -12 l150 -8 37
-150 c21 -82 35 -153 31 -157 -4 -4 -61 -40 -128 -80 l-120 -73 32 -128 c18
-71 34 -130 36 -132 3 -4 980 594 995 608 6 6 -64 296 -76 316 -4 6 -230 20
-559 35 -618 29 -612 29 -612 19z m920 -301 c-58 -33 -147 -84 -198 -115 -51
-32 -96 -57 -100 -57 -5 0 -18 43 -31 95 -13 52 -25 104 -28 115 -5 20 -1 20
228 20 l234 0 -105 -58z"/>
<path d="M9076 13878 c-9 -30 -78 -670 -72 -675 12 -12 1100 -133 1106 -123
10 16 84 689 77 696 -3 4 -47 11 -97 17 -69 8 -93 8 -99 -1 -4 -7 -18 -109
-31 -227 l-23 -215 -26 0 c-41 1 -230 26 -236 31 -2 3 7 95 20 204 13 110 23
201 22 201 -4 4 -199 25 -202 22 -2 -2 -13 -91 -26 -198 -12 -107 -25 -198
-28 -202 -4 -4 -216 16 -227 22 0 0 11 93 24 206 13 113 21 212 18 219 -3 8
-34 15 -83 19 -43 4 -86 10 -96 12 -9 3 -19 -1 -21 -8z"/>
<path d="M25679 13155 c-98 -31 -180 -137 -243 -313 -35 -98 -50 -125 -86
-156 -57 -47 -127 -27 -168 47 -28 53 -22 202 12 301 18 52 23 81 16 86 -22
14 -191 43 -199 34 -17 -18 -42 -111 -53 -197 -29 -216 38 -418 165 -502 67
-44 131 -59 212 -52 146 14 233 99 305 296 61 167 94 211 158 211 101 0 140
-173 77 -350 -8 -24 -14 -44 -13 -45 6 -5 179 -45 192 -45 45 0 75 292 42 420
-43 168 -154 268 -304 276 -41 2 -85 -2 -113 -11z"/>
<path d="M9462 12200 c-279 -50 -432 -246 -432 -551 0 -141 45 -460 68 -480 5
-5 1054 102 1090 110 6 2 1 204 -9 288 -37 338 -165 538 -389 614 -74 24 -241
34 -328 19z m281 -280 c119 -37 201 -136 226 -274 13 -69 14 -136 4 -136 -5 0
-167 -16 -361 -36 -213 -23 -356 -34 -362 -28 -15 15 -27 152 -18 215 19 141
115 240 261 268 78 16 182 12 250 -9z"/>
<path d="M24896 11449 c-12 -81 -15 -124 -8 -128 14 -8 1091 -166 1096 -160
10 9 43 249 35 249 -5 0 -252 36 -551 80 -298 44 -545 80 -549 80 -3 0 -14
-55 -23 -121z"/>
<path d="M12317 6643 c-8 -16 -107 -240 -221 -500 l-207 -472 43 -39 c106 -97
163 -142 172 -138 40 16 931 536 931 543 0 19 -174 165 -187 157 -97 -56 -526
-328 -596 -378 -51 -36 -95 -66 -97 -66 -2 0 14 32 37 71 49 85 330 670 326
679 -2 3 -44 43 -95 88 l-92 83 -14 -28z"/>
<path d="M22252 6469 c-45 -39 -82 -75 -82 -80 0 -13 672 -780 680 -777 18 7
480 414 480 423 0 6 -28 41 -63 79 l-62 69 -150 -131 c-83 -72 -154 -131 -160
-131 -5 0 -131 139 -279 310 -147 170 -272 309 -275 309 -4 0 -44 -32 -89 -71z"/>
<path d="M20560 5395 c-74 -34 -136 -69 -138 -77 -2 -12 134 -1035 141 -1060
1 -4 49 14 107 41 77 35 106 54 108 68 2 11 -6 73 -17 138 -11 66 -19 120 -18
121 1 1 61 29 132 62 l130 61 40 -42 c22 -23 65 -70 95 -104 l55 -61 113 51
c61 28 112 54 112 57 0 5 -666 749 -708 792 -16 15 -26 12 -152 -47z m228
-364 c63 -73 112 -134 110 -136 -1 -1 -47 -23 -100 -48 -96 -45 -98 -45 -103
-24 -3 12 -14 78 -25 147 -12 68 -27 154 -35 190 l-14 65 27 -31 c15 -17 78
-91 140 -163z"/>
<path d="M14231 5318 c-5 -13 -99 -227 -209 -476 l-200 -454 31 -13 c18 -7 66
-29 108 -48 l77 -35 12 27 c23 49 392 886 400 907 7 18 -2 25 -93 65 -55 24
-104 45 -109 47 -4 2 -12 -7 -17 -20z"/>
<path d="M18667 4817 l-77 -10 5 -31 c3 -17 23 -170 46 -339 34 -264 39 -316
29 -360 -23 -112 -86 -163 -193 -155 -56 4 -63 8 -103 50 -28 30 -48 63 -58
98 -9 29 -34 192 -57 364 -23 171 -43 313 -45 315 -5 5 -225 -22 -228 -28 -5
-10 72 -581 89 -659 33 -147 110 -258 214 -306 40 -18 63 -21 176 -20 107 0
140 4 187 22 116 43 187 111 228 218 38 103 37 165 -11 524 l-43 330 -41 -2
c-22 0 -75 -6 -118 -11z"/>
<path d="M16054 4777 c-100 -26 -177 -86 -213 -167 -76 -172 0 -315 230 -436
79 -42 139 -102 139 -140 0 -74 -72 -121 -168 -109 -65 8 -149 36 -210 70 -24
14 -47 23 -52 20 -4 -2 -22 -43 -40 -90 -39 -101 -42 -96 80 -144 334 -130
628 -11 630 255 1 145 -37 190 -298 353 -86 53 -112 93 -92 140 33 80 174 84
323 9 22 -11 41 -17 45 -14 8 8 72 158 72 168 0 12 -99 57 -163 74 -76 21
-222 26 -283 11z"/>
</g>
</svg>
