<?xml version="1.0" standalone="no"?>
<!DOCTYPE svg PUBLIC "-//W3C//DTD SVG 20010904//EN"
 "http://www.w3.org/TR/2001/REC-SVG-20010904/DTD/svg10.dtd">
<svg version="1.0" xmlns="http://www.w3.org/2000/svg"
 width="3508.000000pt" height="2482.000000pt" viewBox="0 0 3508.000000 2482.000000"
 preserveAspectRatio="xMidYMid meet">

<g transform="translate(0.000000,2482.000000) scale(0.100000,-0.100000)"
fill="#000000" stroke="none">
<path d="M17005 21960 c-1916 -117 -3691 -765 -5200 -1897 -378 -284 -675
-543 -1025 -893 -253 -253 -389 -401 -605 -660 -1227 -1472 -1989 -3320 -2160
-5235 -49 -554 -49 -1176 0 -1730 157 -1758 808 -3452 1872 -4870 983 -1308
2304 -2360 3788 -3015 906 -400 1928 -669 2900 -764 321 -32 428 -37 826 -43
518 -7 866 11 1324 68 2577 320 4906 1674 6469 3759 556 742 984 1523 1304
2380 500 1339 692 2764 566 4200 -254 2906 -1836 5544 -4289 7152 -1349 884
-2834 1391 -4495 1534 -215 18 -1050 27 -1275 14z m1221 -344 c1245 -100 2346
-404 3434 -947 2148 -1073 3798 -2944 4593 -5210 265 -753 426 -1528 494
-2379 24 -302 24 -1038 0 -1340 -133 -1657 -649 -3147 -1555 -4490 -1403
-2080 -3611 -3511 -6072 -3934 -961 -166 -1965 -179 -2915 -40 -1369 201
-2654 696 -3803 1467 -1184 793 -2173 1858 -2892 3112 -115 201 -314 596 -415
825 -772 1743 -983 3709 -599 5585 300 1465 952 2833 1909 4000 274 334 665
742 985 1027 1248 1111 2731 1851 4352 2173 447 88 874 140 1408 169 158 9
897 -4 1076 -18z"/>
<path d="M17367 21039 c-38 -4 -70 -9 -72 -11 -3 -4 -26 -1211 -22 -1214 1 0
64 -4 140 -8 l137 -7 0 168 c0 93 3 191 6 219 l6 51 132 5 c98 4 147 11 196
28 167 56 258 163 279 327 17 133 -16 241 -99 324 -94 94 -229 130 -484 128
-83 -1 -182 -5 -219 -10z m384 -210 c84 -18 149 -94 149 -175 0 -65 -46 -141
-101 -170 -44 -22 -125 -35 -185 -28 l-54 7 0 137 c0 183 6 228 34 233 42 8
106 7 157 -4z"/>
<path d="M18886 20933 c-10 -35 -237 -1196 -234 -1198 3 -2 741 -146 763 -149
8 -1 58 214 51 221 -1 2 -110 24 -242 49 -131 26 -242 49 -246 53 -3 3 6 67
21 141 19 95 31 136 41 138 8 1 105 -16 214 -38 110 -22 205 -40 211 -40 10 0
57 210 49 219 -2 3 -101 23 -219 46 -118 23 -217 44 -219 46 -4 4 41 240 47
246 2 1 104 -17 227 -42 123 -25 229 -45 235 -45 14 0 59 211 47 221 -6 5
-713 149 -734 149 -4 0 -9 -8 -12 -17z"/>
<path d="M15210 20721 l-165 -47 -17 -644 c-10 -354 -16 -645 -14 -647 2 -2
65 13 140 34 l136 38 0 165 0 166 163 43 c89 24 166 45 171 45 7 1 170 -242
179 -268 2 -7 257 57 283 73 14 8 -676 1085 -696 1087 -8 1 -89 -19 -180 -45z
m239 -509 c46 -73 81 -136 77 -139 -4 -5 -151 -47 -228 -67 l-28 -6 0 257 0
258 48 -85 c26 -47 85 -145 131 -218z"/>
<path d="M20165 20098 c-103 -260 -205 -516 -225 -568 l-38 -95 127 -51 c69
-28 129 -48 132 -45 3 3 43 101 89 216 46 116 86 214 90 218 11 12 116 -31
149 -62 51 -48 57 -91 37 -259 -9 -81 -18 -171 -19 -201 l-2 -54 130 -53 c81
-33 131 -48 132 -41 10 46 43 379 43 425 0 72 -15 128 -46 168 l-23 32 60 11
c171 30 280 160 278 334 -1 83 -11 118 -56 181 -57 81 -176 153 -368 225 -100
37 -276 91 -295 91 -5 0 -92 -213 -195 -472z m483 160 c37 -13 74 -37 105 -68
45 -45 47 -50 47 -101 0 -69 -31 -125 -85 -157 -33 -19 -50 -22 -100 -19 -56
4 -195 51 -195 66 0 3 28 75 61 159 70 173 54 162 167 120z"/>
<path d="M13961 20259 c-205 -41 -398 -171 -466 -314 -25 -51 -29 -73 -30
-145 0 -77 3 -92 33 -152 39 -79 92 -128 171 -160 52 -21 71 -23 278 -23 l222
0 30 -29 c33 -31 47 -80 37 -121 -21 -83 -191 -169 -359 -182 -73 -6 -78 -8
-74 -27 3 -12 15 -65 27 -119 l22 -99 52 7 c254 32 483 166 572 336 27 49 29
63 29 159 0 100 -1 108 -34 168 -40 74 -84 115 -161 151 -55 26 -57 26 -275
24 -205 -3 -222 -1 -253 17 -64 39 -66 113 -4 172 61 59 155 98 278 116 l51 7
-21 110 -21 110 -30 2 c-17 1 -50 -3 -74 -8z"/>
<path d="M21620 19349 c-261 -220 -481 -406 -489 -414 -12 -11 4 -25 103 -89
64 -42 121 -76 125 -76 4 0 55 41 112 91 57 51 112 98 121 106 15 13 31 5 160
-77 79 -51 145 -94 147 -96 4 -3 -69 -265 -84 -306 -4 -11 28 -37 121 -97 69
-45 128 -81 129 -79 1 2 81 282 177 623 l175 620 -149 98 c-82 53 -154 97
-161 97 -6 -1 -226 -181 -487 -401z m496 69 c-13 -35 -47 -143 -76 -240 -29
-98 -58 -178 -64 -178 -6 1 -57 31 -114 69 l-103 68 88 79 c48 43 132 120 186
171 54 51 99 93 102 93 2 0 -6 -28 -19 -62z"/>
<path d="M17150 19420 c-1279 -79 -2442 -465 -3480 -1155 -456 -303 -768 -561
-1155 -956 -1070 -1091 -1751 -2503 -1939 -4019 -42 -338 -50 -485 -50 -880 0
-212 5 -440 12 -525 90 -1082 388 -2053 912 -2970 161 -281 440 -688 639 -930
226 -276 577 -640 831 -861 1670 -1455 3884 -2033 6070 -1583 828 171 1668
519 2390 993 1689 1109 2819 2877 3104 4856 264 1832 -184 3657 -1264 5144
-680 937 -1597 1702 -2641 2205 -784 377 -1598 595 -2509 671 -172 15 -743 20
-920 10z m655 -220 c131 -5 311 -17 400 -26 1840 -180 3494 -1077 4661 -2529
590 -735 1037 -1631 1268 -2545 148 -583 210 -1078 210 -1690 0 -340 -9 -500
-45 -804 -130 -1122 -552 -2213 -1212 -3139 -625 -876 -1456 -1596 -2412
-2093 -1464 -760 -3173 -958 -4787 -553 -1552 389 -2927 1329 -3870 2645 -223
312 -395 604 -579 979 -360 738 -569 1483 -656 2345 -25 251 -25 989 0 1240
71 698 218 1304 468 1927 82 205 263 581 375 781 464 823 1100 1547 1859 2115
1098 822 2411 1290 3780 1346 275 11 277 11 540 1z"/>
<path d="M17265 18999 c-1587 -96 -2952 -642 -4070 -1628 -334 -295 -683 -683
-938 -1044 -148 -208 -307 -470 -294 -483 3 -3 353 49 778 115 425 67 775 118
779 114 5 -6 535 -1347 579 -1467 6 -15 29 14 113 140 369 555 852 980 1455
1283 520 260 1162 428 1755 459 l136 7 468 585 c257 322 482 603 500 625 l33
41 -510 629 -510 630 -67 1 c-37 1 -130 -2 -207 -7z"/>
<path d="M12765 15825 c-357 -56 -716 -112 -796 -125 l-147 -22 -110 -217
c-429 -841 -664 -1639 -754 -2551 -8 -87 -13 -280 -13 -545 0 -265 5 -458 13
-545 81 -821 282 -1549 613 -2215 81 -163 178 -335 190 -335 3 0 133 327 288
728 156 400 286 730 289 734 4 3 356 -47 782 -113 426 -65 780 -119 787 -119
6 0 -28 82 -77 183 -358 739 -460 1516 -310 2367 72 407 232 881 421 1250 l69
135 -288 745 c-159 409 -293 745 -298 746 -5 1 -301 -44 -659 -101z"/>
<path d="M23361 15459 c-62 -163 -574 -1436 -579 -1441 -4 -4 -360 51 -792
121 -432 71 -786 128 -787 127 -1 -1 29 -65 66 -141 187 -380 299 -756 358
-1200 25 -188 25 -694 0 -895 -71 -570 -268 -1194 -514 -1626 l-40 -70 282
-750 c240 -636 285 -749 301 -748 11 1 372 53 803 115 l784 114 25 40 c39 61
252 485 307 610 332 761 514 1469 576 2245 16 201 16 742 0 940 -64 792 -259
1537 -579 2211 -54 115 -156 305 -188 353 -13 19 -14 18 -23 -5z"/>
<path d="M17535 14432 c-11 -2 -189 -48 -395 -103 -207 -54 -386 -99 -398 -99
-12 0 -50 -9 -83 -20 -33 -11 -91 -27 -130 -35 -39 -8 -79 -20 -89 -25 -11 -6
-106 -33 -211 -60 -105 -27 -202 -56 -215 -65 -23 -15 -24 -20 -24 -138 0 -67
-5 -192 -10 -277 -6 -85 -13 -254 -15 -375 -3 -121 -13 -438 -22 -705 -14
-397 -14 -506 -4 -605 16 -162 51 -314 97 -427 50 -123 196 -340 294 -438 87
-87 247 -208 346 -263 38 -21 82 -46 98 -55 564 -328 754 -432 786 -432 42 0
12 -15 385 200 652 375 747 438 873 575 73 80 236 318 246 360 4 17 20 59 36
95 16 38 40 127 57 215 28 147 28 155 24 445 -2 162 -7 394 -12 515 -4 121
-10 344 -13 495 -3 151 -10 340 -15 420 -6 80 -11 197 -11 261 0 114 -1 117
-25 133 -14 10 -90 33 -168 52 -78 19 -182 48 -232 64 -49 16 -106 32 -125 35
-19 4 -71 17 -115 30 -44 13 -147 39 -230 59 -82 20 -244 61 -360 91 -267 71
-315 82 -340 77z m233 -1034 c-3 -18 -66 -437 -139 -930 l-134 -898 -77 0
c-47 0 -78 4 -78 10 0 6 61 421 135 923 74 502 135 916 135 920 0 4 37 7 81 7
l82 0 -5 -32z m-508 -395 l-1 -178 -259 -160 c-143 -88 -260 -162 -259 -165 0
-3 117 -79 259 -170 l259 -165 1 -178 0 -178 -56 40 c-30 22 -201 142 -379
268 l-324 228 -1 150 0 151 378 266 c207 147 378 267 380 267 1 1 2 -79 2
-176z m973 -106 l367 -258 0 -152 0 -152 -367 -260 c-201 -143 -372 -264 -380
-268 -11 -7 -13 22 -11 169 l3 178 195 124 c107 67 226 142 263 166 l68 43
-263 165 -263 164 -3 178 c-2 147 0 176 11 169 8 -4 179 -124 380 -266z m624
166 c-2 -16 -4 -5 -4 22 0 28 2 40 4 28 2 -13 2 -35 0 -50z m20 -605 c-3 -7
-5 -2 -5 12 0 14 2 19 5 13 2 -7 2 -19 0 -25z m10 -450 c-1 -46 -3 -11 -3 77
0 88 2 125 3 83 2 -42 2 -114 0 -160z"/>
<path d="M20930 10178 c-13 -24 -60 -96 -103 -162 -243 -362 -602 -726 -975
-984 -594 -412 -1390 -680 -2172 -732 -98 -6 -159 -15 -166 -23 -7 -6 -224
-282 -484 -612 -260 -330 -479 -607 -487 -616 -12 -14 44 -86 499 -640 l513
-624 65 -3 c82 -4 342 13 571 38 1124 123 2158 490 3059 1085 676 447 1291
1041 1738 1680 95 136 237 363 231 370 -3 2 -377 -54 -833 -124 l-829 -128
-17 41 c-10 23 -143 361 -295 751 -153 391 -281 713 -285 718 -3 4 -17 -12
-30 -35z"/>
<path d="M12313 19277 c-72 -56 -134 -105 -138 -109 -5 -5 428 -1205 439
-1215 7 -7 231 170 228 180 -2 7 -28 76 -59 155 -34 86 -53 146 -47 151 14 12
247 186 262 195 8 5 57 -25 135 -81 67 -49 127 -92 133 -96 10 -6 235 154 242
172 3 10 -1033 751 -1050 750 -7 0 -72 -46 -145 -102z m354 -354 c95 -70 172
-131 173 -134 0 -13 -203 -160 -211 -152 -4 4 -32 71 -63 148 -30 78 -73 181
-96 229 l-40 89 32 -26 c18 -15 110 -84 205 -154z"/>
<path d="M22862 18457 c-237 -237 -432 -437 -432 -443 0 -13 164 -174 177
-174 9 0 390 382 543 545 51 55 90 91 86 80 -61 -163 -286 -917 -286 -959 0
-6 46 -58 103 -114 l103 -103 432 439 c238 242 432 444 432 448 0 14 -163 174
-177 174 -14 0 -414 -413 -513 -530 -40 -47 -77 -89 -81 -95 -5 -5 2 18 15 51
54 132 111 313 187 593 l80 295 -113 113 c-62 62 -115 113 -118 113 -3 0 -200
-195 -438 -433z"/>
<path d="M11459 18549 c-57 -61 -103 -116 -101 -122 2 -6 53 -119 113 -252 61
-132 113 -245 116 -252 2 -7 -30 2 -74 18 -43 17 -164 62 -270 100 l-191 69
-64 -68 c-103 -108 -151 -162 -147 -166 2 -3 181 -51 398 -108 l394 -103 161
-149 c89 -82 173 -160 187 -173 l26 -24 65 68 c36 37 79 84 96 103 l30 36
-189 174 -189 175 -35 110 c-119 378 -212 665 -217 670 -3 3 -52 -44 -109
-106z"/>
<path d="M24159 17336 c-278 -82 -479 -326 -479 -581 0 -133 76 -322 189 -472
60 -80 222 -243 241 -243 6 0 132 79 280 176 l268 177 -52 81 c-29 44 -86 131
-127 193 l-75 112 -92 -60 -92 -60 50 -74 c28 -41 50 -78 50 -82 0 -4 -48 -39
-105 -77 l-106 -69 -25 24 c-40 37 -89 118 -114 186 -31 85 -26 185 13 264 54
111 195 219 325 249 169 39 341 -70 446 -283 25 -51 48 -109 52 -130 3 -20 10
-39 14 -42 4 -2 55 12 114 31 104 35 106 36 100 62 -26 109 -93 243 -178 356
-178 237 -445 337 -697 262z"/>
<path d="M10279 17092 c-52 -80 -95 -151 -97 -158 -3 -11 718 -884 803 -973
l23 -24 76 117 c42 64 76 121 76 125 0 8 -67 87 -192 227 -19 22 -19 22 73
165 51 79 94 146 95 148 3 4 266 -69 306 -84 11 -5 37 27 97 120 46 70 81 128
79 130 -2 1 -268 77 -593 169 -324 91 -604 170 -621 175 l-30 9 -95 -146z
m489 -236 l173 -53 -74 -112 -74 -112 -124 137 c-68 75 -146 161 -172 190
l-48 53 73 -25 c40 -14 151 -49 246 -78z"/>
<path d="M9621 15890 l-62 -160 147 -217 c81 -120 164 -240 185 -268 21 -27
36 -51 35 -53 -2 -1 -113 40 -246 93 -134 53 -248 94 -253 92 -8 -2 -110 -249
-104 -252 15 -10 1135 -445 1144 -445 10 0 103 219 103 244 0 6 -82 43 -182
82 l-183 71 -43 73 c-24 40 -42 74 -40 75 2 2 138 22 303 45 165 23 301 43
302 44 7 6 113 290 111 296 -2 3 -176 -24 -388 -61 -212 -37 -394 -68 -405
-68 -17 -1 -54 55 -185 277 -90 152 -166 281 -170 285 -4 4 -35 -65 -69 -153z"/>
<path d="M24875 15770 c-313 -125 -571 -232 -573 -238 -2 -7 83 -236 93 -250
2 -2 87 31 191 73 l189 75 78 -26 c55 -18 75 -29 69 -37 -5 -7 -91 -115 -191
-240 l-183 -228 57 -142 c31 -78 60 -146 64 -150 4 -4 120 141 256 323 136
182 253 329 259 327 47 -18 618 -178 622 -175 2 3 -24 74 -58 159 l-63 154
-280 62 c-154 34 -297 64 -319 68 -21 3 -35 10 -30 14 5 5 99 43 209 86 110
43 219 86 242 96 l42 18 -38 98 c-21 54 -45 112 -52 130 l-14 31 -570 -228z"/>
<path d="M9102 14353 c-32 -147 -134 -694 -131 -698 10 -9 1204 -234 1210
-227 6 6 149 737 149 760 0 7 -181 47 -215 47 -5 0 -30 -109 -56 -243 -26
-134 -49 -245 -51 -247 -4 -4 -248 40 -274 49 -7 3 3 76 32 223 23 120 40 220
37 223 -6 6 -170 39 -199 39 -19 1 -24 -15 -64 -220 l-43 -221 -26 5 c-14 3
-68 14 -120 23 -51 10 -95 23 -97 29 -2 5 15 111 39 235 30 153 40 227 33 231
-11 7 -181 39 -203 39 -6 0 -16 -21 -21 -47z"/>
<path d="M24771 14238 c0 -13 10 -77 23 -143 l22 -120 162 -16 c90 -9 164 -18
166 -20 2 -2 15 -74 30 -159 15 -85 29 -162 32 -170 3 -11 -34 -34 -137 -85
-77 -39 -144 -74 -148 -80 -7 -8 36 -282 45 -294 2 -3 1143 585 1150 593 3 3
-63 356 -67 360 -2 2 -276 36 -609 75 -333 39 -620 74 -637 76 -29 5 -33 3
-32 -17z m814 -318 c309 -24 292 -22 265 -33 -14 -6 -117 -55 -229 -109 -113
-54 -208 -95 -212 -91 -3 5 -14 53 -24 108 -9 55 -19 111 -22 124 -6 23 -4 23
38 18 24 -4 107 -11 184 -17z"/>
<path d="M10100 12961 c-8 -5 -102 -32 -207 -60 -106 -28 -207 -58 -225 -67
-54 -27 -97 -63 -114 -96 l-16 -31 -28 50 c-78 136 -226 198 -379 159 -82 -21
-144 -66 -187 -136 -60 -98 -69 -154 -69 -425 0 -132 4 -257 8 -277 l8 -38
332 0 c183 0 457 -3 610 -7 l277 -6 0 141 0 142 -241 0 -241 0 3 84 c6 138 37
163 274 221 82 20 165 43 182 50 l33 14 0 145 c0 81 -1 146 -2 146 -2 0 -10
-5 -18 -9z m-793 -322 c78 -29 115 -100 117 -223 l1 -91 -172 -3 -173 -2 0 95
c0 98 13 149 48 189 37 41 119 58 179 35z"/>
<path d="M26097 12922 l-117 -3 6 -163 7 -164 -508 -7 -508 -8 7 -96 c3 -53 6
-116 6 -140 l0 -44 500 7 500 7 0 -171 0 -170 120 0 121 0 -7 478 c-4 262 -7
477 -8 477 0 0 -54 -1 -119 -3z"/>
<path d="M21653 6014 c-115 -68 -143 -89 -143 -107 0 -12 -7 -137 -15 -277 -8
-140 -16 -279 -18 -308 l-2 -52 -138 230 c-76 126 -142 230 -147 230 -5 0 -58
-30 -120 -67 -84 -50 -109 -70 -105 -82 6 -14 591 -991 619 -1032 10 -15 25
-9 126 52 63 38 114 75 114 82 -1 6 -46 85 -101 175 l-99 162 10 75 c6 40 14
77 18 80 3 4 118 -56 255 -134 137 -77 256 -143 266 -146 11 -5 59 19 144 71
71 42 132 80 136 84 5 4 -156 94 -357 200 -312 163 -366 195 -365 213 0 12 17
160 37 330 21 169 35 307 32 307 -3 0 -69 -39 -147 -86z"/>
<path d="M13305 5349 c-170 -286 -311 -526 -313 -533 -2 -7 121 -86 285 -184
158 -95 307 -183 330 -197 l41 -25 62 101 c33 56 60 103 58 104 -2 1 -95 57
-208 125 -113 67 -206 123 -208 125 -2 2 110 194 249 427 138 232 253 426 256
430 3 6 -196 131 -228 143 -10 3 -107 -151 -324 -516z"/>
<path d="M14993 4773 c-101 -396 -113 -451 -113 -533 0 -271 174 -439 491
-475 194 -22 367 79 458 268 31 63 63 169 136 451 52 203 95 375 95 382 0 7
-15 17 -32 22 -90 25 -228 55 -232 51 -2 -2 -47 -170 -100 -374 -103 -397
-132 -475 -196 -526 -55 -44 -113 -55 -183 -35 -116 34 -165 114 -154 255 4
47 42 213 100 436 52 198 93 361 92 363 -2 2 -263 72 -270 72 -1 0 -42 -161
-92 -357z"/>
<path d="M19548 5052 l-168 -47 0 -45 c0 -25 -7 -315 -15 -644 -9 -329 -14
-601 -12 -603 2 -2 65 14 141 34 l136 38 0 166 0 165 167 47 c92 25 170 44
173 42 4 -3 44 -63 89 -135 46 -71 86 -132 89 -134 4 -2 71 14 149 36 103 29
141 44 135 53 -91 151 -698 1075 -706 1074 -6 0 -86 -22 -178 -47z m103 -284
c23 -40 82 -138 131 -216 49 -79 88 -145 86 -147 -5 -5 -251 -75 -254 -72 -3
3 -10 507 -7 507 1 0 21 -33 44 -72z"/>
<path d="M17893 4783 l-53 -4 0 -132 c0 -165 18 -591 29 -674 4 -35 5 -61 3
-59 -2 3 -23 47 -46 98 -60 133 -113 231 -282 518 l-149 252 -44 -6 c-24 -3
-98 -6 -164 -6 l-119 0 6 -242 c3 -134 9 -413 12 -620 l6 -378 77 0 c42 0 100
3 129 7 l53 6 -7 286 c-3 157 -9 358 -13 446 -4 88 -7 161 -5 163 1 2 38 -68
82 -155 43 -87 138 -259 209 -383 71 -124 147 -256 169 -293 l39 -69 44 6 c24
3 90 6 146 6 l102 0 -5 253 c-2 138 -7 416 -10 617 l-7 365 -75 1 c-41 0 -99
-1 -127 -3z"/>
</g>
</svg>
