<?xml version="1.0" standalone="no"?>
<!DOCTYPE svg PUBLIC "-//W3C//DTD SVG 20010904//EN"
 "http://www.w3.org/TR/2001/REC-SVG-20010904/DTD/svg10.dtd">
<svg version="1.0" xmlns="http://www.w3.org/2000/svg"
 width="3509.000000pt" height="2481.000000pt" viewBox="0 0 3509.000000 2481.000000"
 preserveAspectRatio="xMidYMid meet">

<g transform="translate(0.000000,2481.000000) scale(0.100000,-0.100000)"
fill="#000000" stroke="none">
<path d="M17040 21959 c-2100 -112 -4106 -911 -5695 -2268 -307 -263 -731
-679 -977 -961 -739 -845 -1301 -1758 -1707 -2772 -551 -1380 -773 -2885 -645
-4378 153 -1787 806 -3489 1893 -4930 735 -975 1681 -1826 2727 -2450 1139
-681 2399 -1116 3704 -1279 468 -59 782 -75 1335 -68 428 5 616 15 945 53
2288 258 4402 1334 5964 3034 1410 1536 2275 3468 2475 5530 58 596 60 1237 6
1825 -289 3123 -2088 5894 -4835 7450 -1165 660 -2501 1073 -3845 1189 -404
35 -964 46 -1345 25z m1170 -344 c407 -31 746 -77 1124 -151 2004 -394 3824
-1450 5178 -3005 1215 -1396 1982 -3130 2198 -4964 70 -602 80 -1343 24 -1935
-157 -1677 -753 -3251 -1745 -4605 -425 -582 -989 -1180 -1554 -1650 -1157
-963 -2560 -1638 -4030 -1939 -1089 -223 -2240 -247 -3335 -71 -2479 399
-4690 1798 -6132 3881 -405 586 -778 1298 -1032 1972 -755 1999 -791 4217
-101 6242 596 1748 1715 3286 3210 4410 1224 920 2683 1525 4207 1744 299 44
546 66 978 90 145 8 828 -5 1010 -19z"/>
<path d="M16950 21005 c-58 -7 -108 -14 -111 -14 -7 -1 -165 -292 -239 -440
-22 -45 -43 -81 -45 -79 -3 2 -55 461 -55 482 0 3 -244 -25 -248 -28 -3 -4
115 -1107 120 -1111 4 -4 238 22 243 27 3 2 -4 84 -15 181 l-20 176 42 66 c22
36 42 64 43 63 1 -2 73 -102 160 -223 87 -121 159 -221 161 -223 3 -5 232 18
267 27 28 6 28 8 -197 301 -124 162 -224 301 -221 308 3 7 69 117 148 245 79
128 147 238 151 245 9 15 -37 14 -184 -3z"/>
<path d="M18420 20979 c-87 -15 -196 -74 -266 -143 -176 -177 -228 -509 -115
-735 87 -172 264 -271 481 -270 256 1 445 149 516 404 25 91 30 276 10 355
-48 189 -171 320 -354 374 -68 20 -202 27 -272 15z m215 -218 c52 -24 99 -74
127 -136 30 -68 37 -232 13 -324 -21 -84 -56 -152 -100 -195 -55 -56 -91 -70
-170 -71 -59 0 -78 4 -117 28 -95 55 -138 149 -138 300 0 186 71 341 183 396
54 27 146 28 202 2z"/>
<path d="M20185 20551 c-213 -446 -435 -919 -437 -930 -3 -13 22 -26 164 -82
l46 -18 155 342 c85 188 165 366 177 395 13 29 24 51 26 49 3 -2 -5 -56 -16
-121 -28 -167 -92 -738 -83 -746 5 -4 45 -22 91 -40 82 -32 84 -32 101 -14 33
35 366 447 451 559 46 61 87 114 92 120 5 5 -3 -22 -18 -60 -61 -160 -274
-759 -270 -762 11 -12 222 -90 227 -85 3 4 84 239 179 522 95 283 175 520 177
526 3 7 -38 28 -99 52 -57 22 -126 49 -155 61 l-52 20 -123 -147 c-67 -81
-170 -211 -228 -288 -145 -195 -152 -203 -146 -179 20 78 69 495 82 685 l6 95
-155 61 -156 62 -36 -77z"/>
<path d="M14038 20269 c-128 -64 -137 -71 -143 -101 -7 -44 -64 -484 -67 -528
-3 -31 -15 -11 -116 188 l-112 223 -110 -57 c-61 -30 -110 -60 -110 -65 0 -8
487 -988 495 -997 4 -4 225 107 225 113 0 3 -36 78 -81 166 l-80 161 15 65 c8
36 17 67 20 70 3 4 109 -62 235 -146 l229 -152 132 66 c73 36 131 68 129 69
-2 2 -143 90 -314 196 -170 106 -313 196 -317 199 -3 3 20 139 52 301 32 162
57 296 56 296 0 1 -63 -29 -138 -67z"/>
<path d="M21930 19174 c-177 -246 -317 -450 -313 -454 42 -38 197 -140 203
-133 4 4 54 73 110 153 57 80 106 149 110 153 4 5 32 -10 61 -32 73 -56 177
-107 246 -121 205 -43 398 90 435 300 19 109 -36 239 -140 331 -86 76 -350
249 -379 249 -7 0 -156 -201 -333 -446z m463 140 c135 -70 185 -181 122 -275
-66 -100 -176 -107 -300 -18 -25 18 -45 37 -45 42 0 9 181 267 188 267 2 0 17
-7 35 -16z"/>
<path d="M17190 19420 c-1606 -87 -3079 -686 -4293 -1747 -164 -144 -495 -477
-639 -643 -927 -1070 -1501 -2345 -1677 -3725 -122 -955 -47 -1933 219 -2855
420 -1455 1326 -2761 2545 -3668 1063 -791 2264 -1247 3605 -1369 240 -22 904
-25 1130 -5 1252 109 2348 487 3350 1155 898 599 1637 1384 2183 2319 744
1272 1063 2764 911 4253 -198 1945 -1212 3729 -2784 4900 -1068 796 -2301
1261 -3635 1370 -227 19 -699 26 -915 15z m678 -335 c606 -19 1320 -160 1932
-381 1587 -571 2901 -1721 3681 -3219 913 -1754 995 -3855 222 -5683 -37 -86
-120 -263 -184 -392 -764 -1523 -2084 -2700 -3688 -3286 -1131 -414 -2379
-511 -3576 -278 -2717 529 -4838 2702 -5304 5434 -71 418 -96 762 -88 1249 6
348 11 431 43 696 279 2316 1768 4330 3909 5290 671 301 1397 489 2145 556
164 14 520 27 650 22 52 -1 169 -5 258 -8z"/>
<path d="M18085 16780 c-216 -45 -376 -217 -406 -437 -7 -52 -9 -198 -7 -395
5 -347 11 -386 78 -492 81 -127 198 -198 395 -242 408 -89 765 -251 1092 -495
134 -100 389 -357 496 -500 433 -580 643 -1237 598 -1870 -19 -271 -62 -480
-156 -764 -30 -88 -56 -187 -60 -220 -9 -78 15 -190 57 -273 55 -109 127 -166
444 -348 153 -89 302 -169 329 -178 163 -56 359 -14 489 105 96 87 140 178
244 501 200 615 257 1250 171 1893 -17 131 -47 290 -90 488 l-13 57 -71 0
c-164 0 -355 45 -514 121 -341 162 -572 464 -648 847 -23 117 -23 356 0 472
24 122 69 248 126 356 l50 93 -107 102 c-345 330 -680 571 -1066 768 -356 182
-768 321 -1172 396 -140 26 -190 29 -259 15z"/>
<path d="M21542 15758 c-305 -43 -576 -247 -707 -530 -63 -138 -79 -221 -79
-413 0 -146 3 -182 23 -255 105 -390 418 -651 827 -690 478 -45 892 236 1016
691 20 73 23 107 23 254 -1 195 -17 278 -86 423 -175 377 -580 583 -1017 520z"/>
<path d="M13220 15609 c-193 -32 -401 -139 -526 -271 -359 -377 -346 -1009 28
-1364 132 -125 282 -202 468 -240 126 -25 355 -16 474 20 158 47 273 114 390
225 294 282 369 755 179 1136 -130 258 -376 439 -670 490 -93 16 -256 18 -343
4z"/>
<path d="M17425 13929 c-555 -29 -1148 -283 -1542 -662 -89 -86 -118 -130
-129 -194 -20 -125 104 -251 225 -228 58 11 105 40 203 127 371 327 776 500
1261 540 529 42 1112 -149 1491 -491 105 -95 151 -128 203 -147 52 -18 138
-17 179 2 38 18 91 91 100 139 8 43 -11 110 -48 167 -46 72 -251 245 -428 361
-433 282 -956 415 -1515 386z"/>
<path d="M17467 13229 c-257 -21 -544 -104 -747 -216 -193 -107 -394 -270
-444 -363 -24 -45 -28 -60 -24 -114 4 -69 26 -108 85 -154 31 -23 46 -27 102
-27 82 0 108 12 236 114 199 159 416 267 637 318 144 33 371 38 510 10 242
-48 472 -161 698 -342 110 -88 155 -108 230 -103 102 7 172 80 178 183 6 99
-38 167 -187 287 -296 239 -622 373 -991 407 -126 12 -140 12 -283 0z"/>
<path d="M17495 12528 c-298 -23 -655 -214 -736 -392 -62 -137 59 -305 203
-282 52 9 85 26 191 102 158 113 279 157 437 158 150 0 303 -56 442 -162 122
-94 195 -117 273 -88 53 21 110 81 126 134 29 97 -18 188 -151 295 -214 171
-501 257 -785 235z"/>
<path d="M17463 11753 c-152 -63 -240 -198 -231 -356 7 -133 81 -243 204 -303
52 -25 70 -28 154 -28 84 0 102 3 152 27 149 73 231 234 199 390 -17 81 -43
130 -99 186 -72 71 -128 94 -242 98 -73 2 -105 -1 -137 -14z"/>
<path d="M14970 10839 c-81 -16 -132 -40 -415 -203 -224 -129 -292 -173 -341
-221 -64 -63 -114 -152 -133 -235 -25 -109 -6 -256 45 -350 61 -111 379 -452
595 -636 476 -407 1058 -719 1637 -877 l90 -25 41 83 c154 323 439 552 796
642 139 34 351 42 496 19 386 -64 701 -290 875 -629 26 -50 48 -94 50 -95 6
-8 278 83 433 145 590 233 1073 557 1521 1019 154 159 197 221 225 329 49 190
-24 409 -173 519 -77 56 -572 341 -633 364 -81 30 -179 37 -267 18 -112 -23
-181 -66 -321 -199 -251 -239 -459 -386 -736 -523 -853 -419 -1950 -351 -2730
171 -199 133 -344 259 -571 497 -83 87 -113 111 -175 141 -103 51 -206 66
-309 46z"/>
<path d="M17485 8790 c-421 -39 -753 -331 -836 -735 -67 -326 33 -678 257
-899 351 -347 967 -355 1326 -17 193 181 284 386 295 661 9 216 -35 391 -139
561 -142 229 -411 400 -671 424 -124 11 -153 12 -232 5z"/>
<path d="M12375 19268 c-49 -38 -91 -74 -93 -78 -3 -7 621 -833 664 -879 11
-12 28 -2 109 59 53 41 98 76 100 80 5 7 -667 883 -680 886 -5 2 -50 -29 -100
-68z"/>
<path d="M11375 18384 c-42 -47 -73 -90 -68 -94 85 -80 405 -352 485 -413 59
-45 106 -83 104 -84 -1 -2 -29 6 -62 17 -150 52 -792 197 -805 182 -4 -4 -48
-54 -98 -111 l-92 -105 23 -21 c68 -66 802 -707 813 -711 12 -5 31 13 128 122
l37 41 -192 169 c-106 93 -246 214 -310 268 -65 54 -118 99 -118 100 0 2 60
-15 133 -36 176 -51 768 -181 777 -171 4 4 44 49 89 100 l81 92 -419 371
c-231 203 -422 370 -425 370 -2 0 -39 -39 -81 -86z"/>
<path d="M23470 18265 c-281 -247 -332 -295 -382 -369 -75 -109 -97 -228 -63
-342 32 -109 155 -255 263 -312 142 -75 285 -63 440 38 50 32 356 293 530 452
l43 39 -35 42 c-19 23 -57 66 -84 96 l-48 55 -270 -238 c-183 -161 -288 -246
-328 -266 -97 -49 -170 -37 -238 38 -73 81 -70 164 10 270 20 26 327 302 529
476 l27 24 -36 43 c-20 24 -59 68 -85 98 l-49 54 -224 -198z"/>
<path d="M10195 16828 c-33 -61 -66 -123 -73 -137 -12 -24 -6 -39 94 -231 58
-113 122 -231 140 -262 18 -32 31 -58 29 -58 -3 0 -96 49 -208 109 -112 61
-209 111 -216 113 -10 2 -137 -211 -129 -217 20 -13 975 -521 982 -523 6 -1
37 47 69 107 l58 110 -63 34 c-35 19 -107 59 -162 88 l-98 54 -28 66 -28 66
60 7 c34 3 142 6 242 7 269 0 245 -10 326 139 37 69 67 126 66 127 0 1 -154
-7 -341 -18 -187 -10 -356 -19 -376 -19 l-36 0 -118 268 c-65 147 -121 270
-124 274 -4 4 -33 -43 -66 -104z"/>
<path d="M24790 16883 c-47 -25 -86 -47 -88 -48 -1 -1 29 -59 68 -130 38 -70
70 -131 70 -134 0 -3 -178 -102 -395 -220 -217 -118 -395 -217 -395 -221 0 -6
107 -207 116 -218 1 -2 181 93 399 212 218 119 398 216 400 216 2 0 33 -55 70
-122 37 -68 70 -127 75 -132 9 -9 192 84 188 96 -12 35 -405 747 -413 747 -5
1 -48 -20 -95 -46z"/>
<path d="M25140 15076 c-294 -87 -536 -160 -537 -160 -2 -2 198 -679 202 -684
8 -9 195 53 195 65 0 7 -28 105 -61 219 -35 116 -58 209 -53 213 14 12 234 74
241 68 3 -3 31 -91 62 -194 31 -103 61 -188 66 -188 33 0 185 52 185 63 0 7
-25 96 -56 198 -30 103 -54 187 -52 189 12 10 214 63 219 57 3 -4 32 -97 64
-207 32 -110 59 -201 60 -202 0 -1 45 11 100 27 54 17 99 30 100 30 3 0 -178
605 -191 640 l-9 26 -535 -160z"/>
<path d="M9435 15139 c-17 -50 -185 -653 -182 -656 8 -7 1061 -303 1070 -300
10 3 196 637 197 668 0 12 -25 23 -96 43 -53 15 -97 26 -99 24 -1 -2 -30 -99
-63 -217 -34 -117 -63 -215 -65 -217 -4 -5 -236 62 -245 70 -3 4 19 94 50 201
l55 195 -41 11 c-23 6 -63 17 -90 25 -27 8 -55 14 -61 14 -6 0 -35 -87 -65
-192 -29 -106 -54 -195 -56 -196 -2 -4 -214 55 -219 60 -2 2 23 95 55 208 32
113 55 208 52 212 -4 3 -43 16 -87 28 -43 12 -85 24 -92 27 -7 3 -15 -1 -18
-8z"/>
<path d="M25496 13474 c-296 -23 -540 -45 -543 -48 -5 -5 13 -235 20 -242 2
-2 99 3 216 12 116 9 214 15 216 12 3 -3 6 -38 6 -78 1 -114 -30 -144 -213
-204 -129 -43 -204 -76 -202 -91 1 -5 5 -63 9 -128 6 -104 9 -118 23 -114 67
21 331 121 370 141 45 23 91 67 117 110 9 14 15 10 45 -31 66 -90 158 -130
271 -120 209 19 299 188 270 505 -11 125 -37 298 -47 314 -3 4 -8 7 -12 7 -4
-1 -249 -21 -546 -45z m411 -251 c4 -16 7 -62 7 -103 1 -89 -19 -132 -76 -161
-69 -35 -140 -20 -192 41 -28 34 -41 76 -50 167 l-7 61 98 7 c54 3 105 8 113
9 8 2 34 4 57 5 38 1 43 -2 50 -26z"/>
<path d="M9060 13489 c0 -2 -13 -195 -30 -429 -16 -233 -28 -425 -27 -427 2
-1 50 -3 107 -5 l105 -3 10 145 10 145 40 -2 c22 -1 223 -14 448 -29 224 -15
410 -24 414 -21 7 8 26 238 19 244 -2 2 -205 18 -452 34 -247 17 -450 32 -451
33 -1 1 3 68 9 149 6 81 9 149 7 152 -6 5 -209 19 -209 14z"/>
<path d="M23931 8116 c-35 -47 -62 -88 -60 -93 5 -13 335 -264 465 -354 65
-45 110 -79 99 -75 -62 23 -263 61 -503 96 -150 22 -279 40 -286 40 -7 0 -50
-48 -95 -107 -65 -85 -79 -109 -69 -118 62 -57 812 -625 817 -618 3 5 33 44
65 86 50 66 57 80 45 91 -26 23 -318 246 -455 347 -75 54 -132 99 -127 99 4 0
58 -11 118 -25 135 -31 701 -119 719 -112 16 6 146 172 146 186 0 5 -177 146
-392 312 -216 166 -400 308 -408 315 -14 12 -24 2 -79 -70z"/>
<path d="M11127 7774 l-418 -286 32 -56 c146 -264 320 -442 479 -489 283 -86
653 152 677 434 11 132 -26 252 -124 403 -88 135 -203 280 -223 280 -3 0 -193
-129 -423 -286z m466 -52 c154 -203 109 -395 -124 -517 -62 -33 -86 -39 -150
-43 -66 -4 -84 -1 -130 20 -90 41 -224 198 -188 219 8 4 131 89 274 187 143
99 265 181 270 181 6 1 27 -21 48 -47z"/>
<path d="M22748 6797 l-107 -102 232 -487 c128 -268 235 -486 239 -485 4 1 46
37 92 80 l85 78 -61 124 -62 124 70 63 c38 36 87 80 109 100 l40 36 117 -70
c134 -80 111 -83 232 28 l77 71 -464 272 c-255 149 -470 271 -478 271 -8 -1
-62 -47 -121 -103z m204 -184 c40 -27 121 -77 179 -112 l106 -64 -80 -74 c-44
-40 -83 -73 -86 -73 -4 0 -36 60 -73 133 -37 72 -81 156 -98 185 -17 28 -28
52 -26 52 3 0 38 -21 78 -47z"/>
<path d="M12123 6497 c-260 -144 -473 -264 -473 -267 0 -3 40 -42 88 -86 l88
-81 118 69 118 70 101 -99 c56 -54 103 -101 105 -105 2 -3 -25 -62 -59 -130
l-62 -123 89 -82 c48 -46 90 -83 93 -83 3 0 116 217 250 481 l243 481 -108
109 c-60 60 -111 109 -114 108 -3 0 -218 -118 -477 -262z m427 -19 c-17 -29
-63 -114 -102 -189 l-72 -137 -83 76 c-74 67 -81 76 -65 87 9 6 62 38 117 70
55 32 129 78 165 102 36 23 66 43 68 43 1 0 -11 -24 -28 -52z"/>
<path d="M21871 6086 c-104 -42 -235 -130 -297 -199 -104 -116 -149 -236 -142
-380 10 -203 128 -387 303 -473 69 -34 87 -39 169 -42 191 -8 366 75 558 265
l77 76 -39 61 c-21 33 -86 138 -145 231 -58 94 -111 169 -116 167 -10 -2 -298
-180 -313 -193 -7 -6 79 -159 90 -159 3 0 34 19 70 41 36 23 66 40 68 38 22
-31 106 -172 106 -178 0 -17 -74 -74 -130 -100 -79 -37 -193 -37 -266 1 -63
33 -129 105 -169 184 -26 52 -30 70 -30 144 0 69 5 93 22 127 50 93 191 195
314 226 30 8 54 18 54 23 0 5 -11 46 -25 91 -30 99 -32 100 -159 49z"/>
<path d="M13191 5566 c-146 -238 -266 -437 -268 -443 -3 -9 157 -113 174 -113
9 0 172 262 308 495 41 71 80 134 87 140 7 7 9 7 5 -1 -15 -26 -67 -837 -55
-849 11 -10 201 -125 206 -125 7 1 527 845 537 873 5 11 -152 117 -173 117 -4
0 -19 -19 -33 -42 -150 -246 -236 -390 -284 -478 -31 -58 -54 -94 -51 -80 16
75 36 345 41 560 l7 245 -114 68 c-62 37 -116 67 -118 67 -3 -1 -124 -196
-269 -434z"/>
<path d="M20640 5415 c-46 -18 -86 -38 -88 -43 -4 -14 160 -435 219 -560 l48
-103 -103 98 c-105 100 -484 419 -511 429 -8 3 -70 -15 -139 -41 -116 -44
-124 -49 -116 -69 4 -11 87 -228 184 -480 97 -253 178 -462 181 -464 2 -3 49
12 104 33 l100 38 -19 46 c-9 25 -50 131 -90 235 -39 103 -94 241 -121 304
-27 64 -49 118 -49 120 0 3 44 -38 99 -90 109 -106 537 -468 551 -468 9 0 221
78 226 83 8 8 -366 962 -378 964 -7 1 -51 -13 -98 -32z"/>
<path d="M15601 4993 c-5 -21 -44 -172 -86 -337 -41 -164 -84 -314 -94 -335
-45 -86 -106 -107 -206 -72 -33 12 -66 23 -73 24 -7 1 -25 -26 -41 -63 -48
-112 -49 -104 19 -133 175 -76 331 -69 429 19 77 69 101 132 201 524 49 195
88 355 87 355 -3 3 -216 55 -221 55 -3 0 -10 -17 -15 -37z"/>
<path d="M19245 4973 c-60 -13 -110 -25 -111 -26 -3 -3 213 -1007 217 -1012 5
-4 218 41 225 47 4 5 -209 1005 -216 1011 -3 2 -54 -7 -115 -20z"/>
<path d="M16651 4817 c-5 -12 -95 -237 -200 -501 -106 -263 -190 -481 -187
-484 10 -10 228 -24 235 -16 4 5 23 50 41 99 18 50 38 104 45 120 l12 31 143
-12 c92 -8 145 -16 150 -24 4 -7 18 -63 30 -125 12 -62 25 -117 29 -124 7 -11
237 -38 247 -29 3 4 -224 1049 -230 1055 -2 2 -54 8 -117 13 -63 5 -131 12
-152 14 -32 4 -40 1 -46 -17z m183 -401 c19 -105 34 -192 32 -193 -5 -5 -208
16 -214 21 -2 2 21 71 51 153 29 81 60 170 67 197 17 64 19 60 64 -178z"/>
<path d="M18025 4815 c-185 -24 -190 -25 -193 -65 -3 -37 66 -982 72 -988 2
-2 54 0 115 4 l111 7 0 30 c0 38 -19 300 -24 344 -4 31 -3 32 40 39 123 18
163 -19 229 -214 26 -78 53 -149 59 -158 11 -14 27 -15 127 -7 92 6 114 11
112 23 -4 36 -115 327 -140 367 -16 24 -45 55 -66 67 l-38 23 48 35 c30 21 59
55 78 89 26 46 30 64 30 129 0 131 -57 216 -177 262 -70 26 -236 32 -383 13z
m285 -200 c63 -60 63 -156 -1 -209 -33 -28 -74 -41 -160 -50 l-57 -6 -6 78
c-4 42 -9 107 -13 144 -6 78 -8 77 124 75 76 -2 84 -4 113 -32z"/>
</g>
</svg>
