<?xml version="1.0" standalone="no"?>
<!DOCTYPE svg PUBLIC "-//W3C//DTD SVG 20010904//EN"
 "http://www.w3.org/TR/2001/REC-SVG-20010904/DTD/svg10.dtd">
<svg version="1.0" xmlns="http://www.w3.org/2000/svg"
 width="3509.000000pt" height="2482.000000pt" viewBox="0 0 3509.000000 2482.000000"
 preserveAspectRatio="xMidYMid meet">

<g transform="translate(0.000000,2482.000000) scale(0.100000,-0.100000)"
fill="#000000" stroke="none">
<path d="M17005 21960 c-628 -39 -1212 -129 -1795 -275 -2076 -520 -3914
-1724 -5236 -3430 -636 -821 -1147 -1769 -1480 -2750 -271 -796 -420 -1526
-491 -2405 -24 -304 -24 -1076 0 -1380 43 -527 112 -990 218 -1450 504 -2198
1775 -4151 3584 -5509 1383 -1038 2996 -1674 4720 -1861 410 -44 1098 -63
1500 -41 1754 96 3370 629 4813 1588 526 350 989 730 1453 1193 261 260 401
413 615 670 1721 2068 2485 4781 2103 7460 -376 2634 -1836 4987 -4042 6516
-612 425 -1344 808 -2047 1072 -851 321 -1685 506 -2640 588 -216 18 -1053 27
-1275 14z m985 -330 c1434 -73 2798 -461 4030 -1148 2616 -1457 4363 -4076
4695 -7037 43 -387 50 -528 50 -1035 0 -507 -7 -648 -50 -1035 -260 -2323
-1392 -4453 -3180 -5984 -1398 -1198 -3147 -1956 -4974 -2156 -588 -64 -1252
-71 -1836 -19 -2006 177 -3887 1002 -5385 2361 -191 173 -566 553 -719 728
-727 832 -1271 1720 -1666 2720 -634 1604 -803 3358 -489 5066 223 1215 701
2397 1385 3421 371 556 736 996 1225 1478 338 332 574 536 944 814 1458 1094
3205 1726 5045 1825 220 12 701 12 925 1z"/>
<path d="M17277 20537 c-86 -282 -157 -516 -157 -520 0 -4 54 -7 120 -7 l119
0 21 73 c12 39 29 99 38 132 l18 60 146 3 147 3 31 -103 c17 -57 36 -118 41
-135 l11 -33 124 0 c93 0 124 3 123 13 0 6 -71 239 -157 517 l-158 505 -155 3
-155 2 -157 -513z m313 298 c0 -7 23 -92 50 -188 28 -96 50 -179 50 -186 0 -7
-35 -11 -110 -11 -60 0 -110 2 -110 5 0 3 18 67 39 144 22 76 45 166 52 199 6
34 15 59 20 56 5 -3 9 -11 9 -19z"/>
<path d="M18746 20959 c-7 -21 -176 -992 -173 -995 4 -4 222 -42 225 -40 1 2
18 90 37 196 19 106 36 195 39 197 9 9 96 -10 125 -28 46 -28 69 -73 76 -148
16 -185 26 -266 35 -271 13 -8 220 -43 225 -38 3 2 0 44 -5 94 -5 49 -14 134
-20 189 -11 109 -45 196 -83 216 -19 11 -17 13 27 30 101 38 169 123 182 228
19 151 -64 261 -237 316 -147 46 -444 82 -453 54z m373 -218 c58 -30 81 -65
81 -121 0 -57 -30 -107 -80 -132 -41 -21 -84 -22 -164 -6 -51 10 -57 13 -52
32 2 12 10 50 16 86 6 36 15 89 21 119 l11 54 64 -6 c35 -3 81 -15 103 -26z"/>
<path d="M15970 20903 c-144 -23 -350 -78 -350 -93 0 -10 167 -940 175 -978 5
-21 9 -22 63 -16 123 12 296 45 370 69 158 53 276 142 335 252 99 185 61 483
-80 634 -96 103 -196 140 -371 138 -65 -1 -128 -4 -142 -6z m191 -189 c73 -22
148 -96 179 -179 27 -72 38 -211 21 -272 -34 -124 -152 -214 -301 -230 -57 -6
-58 -5 -64 23 -35 160 -113 631 -105 638 12 13 115 34 170 35 25 1 70 -6 100
-15z"/>
<path d="M14768 20583 l-87 -34 25 -67 c70 -186 181 -455 216 -526 l40 -80
-103 98 c-95 90 -460 397 -507 427 -17 11 -38 6 -146 -36 -72 -27 -125 -53
-123 -59 3 -6 86 -222 186 -480 100 -259 184 -472 186 -475 3 -2 50 13 104 35
l99 39 -23 60 c-13 33 -74 186 -135 340 -61 154 -114 287 -117 295 -4 8 38
-28 93 -80 121 -116 541 -470 557 -470 25 1 219 86 219 95 -1 6 -83 223 -183
483 -138 357 -186 472 -198 471 -9 -1 -55 -17 -103 -36z"/>
<path d="M20095 20148 c-180 -236 -323 -434 -318 -438 9 -8 198 -80 211 -80 5
0 44 49 87 110 60 83 84 109 96 105 10 -3 71 -26 136 -50 l118 -44 0 -141 0
-142 104 -39 c57 -21 109 -39 115 -39 14 0 71 1069 59 1081 -5 4 -39 18 -78
32 -38 14 -100 36 -137 50 l-66 26 -327 -431z m398 180 c-2 -13 -10 -105 -17
-206 -7 -100 -15 -185 -18 -187 -4 -4 -194 61 -206 70 -1 1 41 61 93 134 52
73 105 151 117 172 24 44 37 50 31 17z"/>
<path d="M13153 19827 l-272 -163 265 -442 c146 -243 270 -442 275 -442 12 0
527 306 548 326 12 10 6 25 -33 93 -42 72 -50 80 -67 70 -11 -5 -93 -54 -184
-109 l-164 -99 -61 100 c-33 55 -60 103 -60 107 1 4 67 47 148 95 81 48 153
92 161 96 11 7 4 25 -34 87 -26 44 -49 81 -50 83 -2 1 -76 -41 -165 -94 -89
-54 -165 -93 -169 -89 -14 16 -101 165 -101 172 0 4 73 50 161 102 88 52 165
98 171 101 10 6 -79 169 -92 169 -3 0 -127 -73 -277 -163z"/>
<path d="M21438 19580 c-216 -198 -394 -364 -396 -369 -3 -10 180 -121 200
-121 7 0 54 41 103 90 49 50 93 90 96 90 8 0 225 -126 245 -142 9 -6 2 -45
-22 -141 -18 -72 -34 -133 -34 -133 -1 -7 213 -124 217 -120 7 6 255 1048 251
1051 -10 7 -227 135 -245 144 -19 10 -54 -20 -415 -349z m421 98 c-6 -18 -30
-109 -54 -202 -24 -92 -46 -171 -49 -173 -4 -4 -111 54 -176 97 -12 7 15 39
135 159 83 83 151 150 152 151 1 0 -3 -15 -8 -32z"/>
<path d="M17150 19420 c-1410 -86 -2714 -562 -3818 -1395 -746 -561 -1340
-1221 -1819 -2020 -1037 -1728 -1272 -3853 -641 -5785 349 -1069 967 -2056
1778 -2843 1493 -1449 3511 -2153 5590 -1952 1598 155 3112 870 4255 2010
1107 1105 1809 2526 2009 4070 66 503 73 1119 20 1635 -203 1980 -1245 3782
-2869 4960 -467 338 -1012 636 -1550 847 -627 246 -1276 396 -1975 458 -209
19 -776 27 -980 15z m680 -330 c118 -6 285 -17 370 -25 2151 -210 4058 -1446
5148 -3335 97 -167 286 -549 361 -727 693 -1649 693 -3537 0 -5186 -128 -305
-341 -709 -529 -1005 -423 -664 -994 -1278 -1635 -1759 -1412 -1059 -3183
-1510 -4954 -1262 -1153 161 -2254 634 -3186 1366 -1198 942 -2050 2289 -2384
3769 -66 292 -112 588 -143 919 -18 190 -18 940 0 1130 74 787 254 1485 555
2157 720 1603 2023 2851 3657 3501 856 340 1816 500 2740 457z"/>
<path d="M16908 18049 c-53 -319 -98 -582 -100 -584 -1 -2 -263 -70 -581 -151
-365 -93 -581 -144 -585 -138 -31 46 -728 897 -739 901 -7 3 -220 -108 -474
-247 -408 -224 -460 -255 -456 -274 2 -12 104 -264 226 -561 122 -296 220
-544 219 -551 -2 -7 -187 -201 -411 -433 l-408 -420 -47 18 c-988 388 -1084
424 -1097 410 -13 -14 -535 -925 -535 -934 0 -3 204 -167 453 -366 248 -199
458 -367 465 -373 10 -10 -19 -126 -144 -582 -86 -313 -160 -573 -164 -577 -4
-5 -270 -51 -590 -103 -320 -52 -586 -97 -591 -100 -8 -4 -14 -1063 -6 -1064
1 -1 269 -40 596 -88 l595 -88 152 -584 c85 -330 148 -590 143 -595 -4 -6
-210 -170 -458 -365 -248 -195 -450 -362 -451 -370 0 -18 511 -928 525 -934 6
-2 253 93 548 210 296 118 544 214 551 214 20 0 859 -848 853 -862 -89 -220
-418 -1081 -415 -1089 4 -13 887 -541 913 -545 16 -3 96 89 388 446 203 248
375 450 383 450 14 0 1126 -268 1130 -273 1 -1 51 -263 109 -582 59 -319 110
-583 114 -588 12 -12 1054 14 1067 27 6 6 53 259 104 561 52 303 94 551 96
553 1 2 242 76 535 166 294 90 543 166 554 169 17 6 77 -64 390 -448 204 -249
376 -456 382 -459 14 -6 953 531 953 545 0 5 -90 245 -200 533 -110 288 -200
527 -200 532 0 5 191 200 424 433 l424 424 549 -205 c301 -113 553 -203 558
-201 16 5 500 902 500 926 0 15 -123 123 -450 394 -247 206 -450 377 -449 381
1 7 336 1135 339 1139 0 1 271 48 600 103 330 56 610 105 623 110 l22 10 0
494 c0 462 -1 496 -17 504 -10 5 -299 60 -643 122 -344 63 -627 115 -629 116
-5 4 -241 1025 -241 1044 0 8 189 204 420 435 231 231 420 427 420 435 -1 26
-487 885 -504 888 -8 2 -268 -90 -577 -204 l-561 -207 -47 49 c-102 104 -687
711 -728 754 l-43 46 250 604 c185 446 247 607 239 616 -12 15 -710 384 -726
384 -5 0 -207 -198 -447 -440 l-438 -441 -655 155 c-361 85 -659 159 -662 164
-3 6 -48 265 -100 576 l-94 566 -527 0 -526 0 -96 -581z m1097 -1349 c794 -84
1505 -359 2127 -823 73 -54 137 -96 143 -93 6 2 118 79 249 171 132 92 254
176 272 187 33 20 34 20 61 0 16 -12 100 -93 188 -181 l159 -160 -20 -28 c-76
-104 -364 -522 -364 -527 0 -4 28 -41 63 -84 464 -566 772 -1229 901 -1942 50
-277 61 -402 61 -755 0 -347 -7 -450 -51 -720 -48 -296 -151 -656 -262 -918
l-51 -118 31 -67 c58 -128 108 -266 108 -296 0 -36 -70 -170 -91 -174 -8 -1
-68 28 -134 65 l-120 68 -77 -123 c-148 -236 -338 -478 -535 -683 -58 -60
-104 -111 -102 -113 2 -3 92 -55 199 -116 107 -61 196 -113 198 -115 2 -1 -26
-61 -61 -132 -49 -96 -72 -132 -92 -141 -55 -25 -386 -11 -666 29 l-146 20
-64 -42 c-389 -260 -865 -466 -1332 -579 -311 -75 -562 -108 -897 -117 -882
-23 -1699 208 -2444 691 l-139 90 -149 -152 -148 -152 -48 0 c-66 1 -203 32
-297 70 -234 92 -439 265 -595 499 -126 188 -206 465 -160 552 7 13 78 90 158
171 l144 146 -77 127 c-598 987 -772 2154 -489 3279 92 366 258 769 449 1092
l65 112 -30 81 c-16 46 -30 98 -30 118 0 35 66 183 82 183 5 0 44 -20 88 -45
44 -25 83 -45 87 -44 4 0 49 53 98 117 114 147 474 510 627 632 65 52 117 95
115 96 -1 1 -102 59 -224 129 l-223 127 66 130 c87 171 67 163 360 148 260
-12 413 -30 574 -68 63 -14 129 -26 145 -26 17 1 103 33 193 73 429 189 891
302 1392 341 139 11 577 4 715 -10z"/>
<path d="M14758 16216 l-27 -54 485 -277 c300 -171 491 -286 501 -301 14 -21
15 -44 10 -147 -14 -245 -80 -455 -203 -645 -115 -177 -391 -412 -485 -412
-33 0 -113 42 -517 274 -301 173 -478 269 -480 261 -4 -18 57 -173 113 -285
239 -478 612 -751 1138 -835 54 -9 174 -20 265 -24 205 -11 223 -17 403 -138
220 -150 465 -363 859 -750 l206 -202 344 344 343 344 -243 248 c-426 435
-722 771 -859 974 -112 165 -120 192 -137 439 -7 113 -18 239 -24 280 -45 323
-198 568 -450 716 -246 145 -567 216 -1085 239 l-131 6 -26 -55z"/>
<path d="M20364 15685 l-449 -315 -32 -122 c-17 -68 -39 -152 -49 -188 l-16
-65 -1437 -1437 c-790 -791 -1438 -1438 -1441 -1438 -3 0 -89 52 -190 115
-101 63 -189 115 -196 115 -6 0 -41 -31 -77 -69 -60 -61 -67 -73 -67 -108 0
-56 -35 -187 -70 -262 -131 -279 -484 -532 -825 -590 -38 -7 -81 -14 -95 -17
-16 -3 -287 -267 -779 -757 -414 -414 -766 -769 -781 -789 -28 -38 -28 -38
-15 -105 32 -164 95 -295 219 -449 160 -201 389 -345 618 -391 l80 -16 785
785 784 784 20 100 c45 236 136 426 288 603 152 176 349 287 545 307 63 6 65
7 134 78 l70 71 -122 193 -121 194 1427 1426 c785 784 1438 1432 1450 1438 13
7 97 31 188 54 91 23 173 46 182 51 20 11 641 896 636 908 -2 5 -51 54 -109
109 l-106 101 -449 -314z"/>
<path d="M18052 12337 l-342 -342 106 -105 c58 -58 230 -233 382 -390 406
-420 582 -625 728 -847 104 -157 110 -175 118 -368 21 -475 106 -720 320 -922
135 -127 300 -211 538 -273 198 -52 512 -90 740 -90 l98 0 26 51 c14 28 24 52
22 54 -2 1 -214 123 -473 270 -258 148 -480 277 -492 288 -31 28 -36 64 -24
192 31 351 152 613 384 832 103 96 241 192 291 200 33 5 76 -17 522 -272 267
-152 488 -275 491 -272 8 9 -84 233 -134 327 -288 538 -720 793 -1398 826
-205 9 -284 42 -500 204 -170 128 -581 507 -920 849 -71 72 -132 131 -135 131
-3 0 -159 -154 -348 -343z"/>
<path d="M12240 19197 c-58 -49 -106 -95 -108 -102 -3 -14 45 -467 55 -518 5
-26 -22 1 -145 145 l-151 178 -83 -71 c-46 -38 -83 -76 -83 -83 0 -14 652
-786 664 -786 9 0 171 140 171 148 0 4 -50 65 -110 136 l-110 129 0 64 c0 34
4 63 9 63 6 0 114 -38 241 -85 128 -47 237 -82 244 -78 33 20 196 166 191 171
-3 4 -151 54 -328 112 l-322 106 -7 142 c-5 78 -11 204 -15 281 l-8 139 -105
-91z"/>
<path d="M22601 18820 c-182 -209 -333 -385 -335 -392 -3 -7 31 -44 74 -81
l79 -68 133 153 c74 84 181 209 238 278 137 165 134 162 120 125 -32 -85 -196
-796 -188 -815 3 -8 178 -160 183 -160 2 0 157 176 344 391 l340 390 -79 71
c-69 60 -83 68 -96 57 -29 -24 -309 -353 -373 -439 -75 -100 -87 -113 -77 -85
31 83 85 301 130 522 l53 261 -99 86 c-55 47 -103 86 -108 86 -5 0 -157 -171
-339 -380z"/>
<path d="M10647 17555 l-78 -114 77 -197 c41 -108 86 -222 100 -252 13 -30 23
-56 21 -58 -2 -2 -85 53 -185 122 -100 69 -186 123 -191 120 -5 -3 -36 -46
-69 -94 l-61 -89 428 -295 429 -295 61 87 c33 49 62 93 63 98 2 6 -58 53 -132
104 l-135 93 -21 65 c-17 52 -18 66 -8 68 8 2 122 -6 255 -18 133 -12 245 -18
249 -13 4 4 40 55 79 113 l72 105 -218 12 c-120 7 -276 16 -348 20 l-130 8
-47 145 c-25 80 -63 198 -84 263 -20 64 -40 117 -43 117 -3 0 -41 -52 -84
-115z"/>
<path d="M24170 17194 c-228 -152 -419 -279 -423 -284 -5 -4 20 -51 55 -103
l64 -96 168 112 168 112 24 -30 c13 -17 31 -49 40 -72 15 -40 15 -46 0 -86 -9
-23 -49 -78 -88 -122 -84 -93 -138 -159 -138 -171 0 -11 121 -194 129 -194 11
0 216 242 249 294 23 37 33 66 35 99 2 45 13 57 33 37 5 -5 37 -16 72 -25 51
-13 73 -14 116 -5 68 14 137 57 176 111 82 113 63 251 -62 441 -67 103 -185
258 -196 258 -4 0 -194 -124 -422 -276z m496 -122 c21 -40 25 -62 21 -93 -13
-96 -131 -150 -214 -99 -29 17 -123 132 -123 149 0 3 53 41 118 84 l117 77 27
-32 c16 -18 40 -57 54 -86z"/>
<path d="M9860 16270 c-27 -55 -50 -104 -50 -110 0 -9 919 -475 925 -468 8 9
106 211 103 213 -2 2 -211 107 -465 234 l-463 231 -50 -100z"/>
<path d="M24858 16023 l-467 -225 52 -104 c28 -57 55 -104 58 -104 8 0 920
437 927 444 4 5 -94 217 -100 215 -2 0 -213 -102 -470 -226z"/>
<path d="M9505 15476 c-2 -6 -17 -53 -33 -103 l-31 -93 217 -70 c119 -38 276
-85 347 -104 144 -37 144 -38 -25 -55 -119 -13 -638 -114 -650 -127 -13 -15
-89 -254 -82 -258 33 -18 976 -315 982 -309 4 4 21 50 38 101 l31 93 -26 10
c-32 12 -532 170 -633 200 l-75 22 105 13 c177 20 736 126 750 141 16 17 78
223 69 228 -5 4 -227 77 -495 164 -307 101 -487 155 -489 147z"/>
<path d="M25225 15217 c-269 -83 -491 -152 -493 -153 -7 -4 60 -204 68 -204
13 0 431 131 589 184 l135 46 -80 -72 c-85 -77 -390 -384 -479 -484 l-54 -61
34 -113 c20 -63 37 -115 38 -116 1 -2 224 65 495 148 332 102 492 156 492 165
0 24 -54 193 -62 193 -19 0 -477 -147 -578 -185 l-114 -44 49 41 c76 62 535
531 535 546 0 19 -70 245 -79 253 -3 4 -226 -61 -496 -144z"/>
<path d="M9067 13896 c-10 -68 -17 -133 -17 -144 0 -13 58 -71 168 -171 93
-83 186 -164 207 -181 21 -16 34 -30 29 -30 -5 0 -108 14 -228 30 -120 17
-220 29 -221 28 -1 -2 -9 -54 -17 -115 l-14 -113 30 -5 c91 -16 992 -133 997
-129 3 2 12 51 19 110 9 82 10 108 0 114 -6 4 -80 15 -163 25 l-152 19 -47 50
c-26 28 -44 54 -40 57 4 4 104 46 222 94 119 47 221 89 228 94 11 7 54 260 46
270 -2 2 -146 -59 -320 -135 l-317 -138 -194 197 c-106 108 -195 197 -197 197
-1 0 -10 -56 -19 -124z"/>
<path d="M25560 13790 c-382 -60 -525 -413 -358 -878 l30 -83 37 5 c20 3 142
18 271 32 129 15 236 27 238 29 5 4 -40 370 -47 376 -3 3 -44 2 -92 -3 l-85
-10 9 -75 c5 -41 6 -78 2 -81 -3 -3 -51 -11 -106 -17 -97 -11 -101 -10 -112 9
-7 13 -12 65 -12 131 0 131 14 165 95 239 88 78 235 107 360 70 68 -20 149
-95 179 -165 32 -74 46 -204 32 -291 -14 -84 -14 -83 73 -92 33 -4 71 -10 83
-12 19 -5 22 0 33 53 18 85 7 280 -20 368 -62 196 -179 326 -340 376 -73 22
-195 31 -270 19z"/>
<path d="M9793 12315 l7 -215 -125 0 -125 0 0 108 c0 59 -3 144 -7 190 l-6 82
-47 0 c-26 0 -68 -3 -94 -6 l-47 -7 7 -188 7 -189 -111 0 -112 0 -2 198 -3
197 -97 3 -98 3 5 -183 c3 -101 8 -246 11 -323 l6 -140 426 12 c235 6 469 12
520 12 l92 1 -5 143 c-3 78 -8 226 -11 330 l-6 187 -96 0 -95 0 6 -215z"/>
<path d="M25206 12308 c-3 -24 -8 -77 -11 -120 l-6 -76 53 -19 c29 -11 88 -32
132 -48 l78 -28 -6 -106 c-4 -58 -9 -125 -13 -148 l-5 -42 -97 -21 c-53 -12
-112 -26 -133 -31 l-36 -9 -6 -78 c-4 -42 -8 -98 -11 -124 -2 -27 -1 -48 3
-48 20 0 1039 244 1046 251 9 8 32 296 24 304 -4 5 -944 366 -985 379 -19 6
-22 3 -27 -36z m821 -475 c-2 -2 -337 -72 -385 -80 l-33 -6 7 99 c3 55 7 104
9 111 2 7 72 -12 203 -55 110 -37 199 -68 199 -69z"/>
<path d="M9113 11202 c-46 -8 -83 -20 -83 -26 0 -14 142 -770 145 -774 4 -5
179 30 187 37 3 3 -5 64 -19 135 -15 82 -21 131 -15 135 6 3 191 40 411 81
334 63 401 78 401 91 0 17 -38 211 -43 215 -1 1 -186 -33 -410 -75 -224 -43
-410 -75 -411 -72 -2 3 -14 56 -25 116 -31 158 -30 155 -44 154 -6 -1 -49 -8
-94 -17z"/>
<path d="M25027 10808 c-14 -57 -25 -104 -24 -105 5 -4 462 -121 602 -154
l140 -33 -75 -13 c-139 -24 -755 -174 -767 -187 -11 -11 -63 -230 -56 -236 10
-9 993 -264 997 -259 5 7 55 203 53 206 -8 7 -525 133 -612 149 l-100 18 50 9
c146 25 322 65 524 119 124 33 228 62 230 64 9 9 70 259 63 264 -6 6 -981 260
-995 260 -2 0 -16 -46 -30 -102z"/>
</g>
</svg>
